<?xml version="1.0" encoding="utf-8"?>
<!-- Generator: Adobe Illustrator 21.1.0, SVG Export Plug-In . SVG Version: 6.00 Build 0)  -->
<svg version="1.1" id="Layer_1" xmlns="http://www.w3.org/2000/svg" xmlns:xlink="http://www.w3.org/1999/xlink" x="0px" y="0px"
	 viewBox="0 0 113.3 144.8" style="enable-background:new 0 0 113.3 144.8;" xml:space="preserve">
<style type="text/css">
	.st0{enable-background:new    ;}
	.st1{fill:#FFFFFF;}
</style>
<g class="st0">
	<path class="st1" d="M2.5,69.1h15.4v2.6H5.3v6.4h11.6v2.5H5.3v7.2h12.8v2.5H2.5V69.1z"/>
	<path class="st1" d="M23.7,90.3h-3.4l7.5-10.9l-7-10.3h3.6l5.3,8.1l5.3-8.1h3.4l-7,10.3l7.4,10.9h-3.5l-5.6-8.7L23.7,90.3z"/>
	<path class="st1" d="M59.1,72.1c1.4,1.9,2.1,4.3,2.1,7.2c0,3.2-0.8,5.8-2.4,7.9c-1.9,2.5-4.6,3.7-8.1,3.7c-3.3,0-5.8-1.1-7.7-3.2
		c-1.7-2.1-2.5-4.7-2.5-7.9c0-2.9,0.7-5.3,2.1-7.4c1.8-2.6,4.5-3.9,8.1-3.9C54.5,68.5,57.3,69.7,59.1,72.1z M56.5,85.6
		c1.1-1.8,1.7-3.9,1.7-6.3c0-2.5-0.7-4.5-2-6c-1.3-1.5-3.1-2.3-5.3-2.3c-2.2,0-4,0.8-5.4,2.3s-2.1,3.7-2.1,6.7
		c0,2.3,0.6,4.3,1.8,5.9c1.2,1.6,3.1,2.4,5.8,2.4C53.6,88.3,55.4,87.4,56.5,85.6z"/>
	<path class="st1" d="M80,69.1v2.5h-7.1v18.7H70V71.6h-7.1v-2.5H80z"/>
	<path class="st1" d="M83.3,69.1h2.9v21.2h-2.9V69.1z"/>
	<path class="st1" d="M105.8,70.6c1.5,1.4,2.3,3,2.4,4.8h-2.8c-0.3-1.4-0.9-2.4-1.9-3.2s-2.2-1.2-3.9-1.2c-2,0-3.7,0.7-5,2.2
		c-1.3,1.5-1.9,3.7-1.9,6.7c0,2.5,0.6,4.5,1.7,6c1.1,1.5,2.8,2.3,5.1,2.3c2.1,0,3.7-0.8,4.7-2.4c0.6-0.9,1-2,1.3-3.4h2.8
		c-0.2,2.2-1.1,4.1-2.5,5.6c-1.7,1.8-3.9,2.7-6.7,2.7c-2.4,0-4.5-0.7-6.1-2.2c-2.2-2-3.3-5-3.3-9.1c0-3.1,0.8-5.7,2.5-7.7
		c1.8-2.2,4.2-3.3,7.3-3.3C102.3,68.5,104.3,69.2,105.8,70.6z"/>
</g>
<g class="st0">
	<path class="st1" d="M1.8,129.7V96h22.4v2.7H5v12.2h17.3v2.7H5V127h19.7v2.7H1.8z"/>
	<path class="st1" d="M27.3,129.7L40.5,96h3.6L57,129.7h-3.3l-3.9-10.6H34.5l-4,10.6H27.3z M35.6,116.4h13.2l-6.6-17.7L35.6,116.4z"
		/>
	<path class="st1" d="M58.5,96H83v2.7H72.3v30.9h-3.2V98.8H58.5V96z"/>
	<path class="st1" d="M88.8,119.6c0.1,1.5,0.5,2.8,1,3.8c0.5,1,1.2,1.9,2.1,2.5s1.8,1.1,3,1.4c1.1,0.3,2.3,0.4,3.6,0.4
		c1.5,0,2.8-0.2,3.9-0.6c1.1-0.4,2-0.9,2.7-1.5s1.2-1.4,1.5-2.2s0.5-1.7,0.5-2.7c0-1.3-0.3-2.4-0.9-3.2c-0.6-0.8-1.4-1.5-2.3-2
		c-1-0.5-2-0.9-3.3-1.2s-2.5-0.6-3.8-0.9c-1.3-0.3-2.6-0.6-3.8-1.1c-1.2-0.4-2.3-1-3.3-1.6c-1-0.7-1.7-1.6-2.3-2.6
		c-0.6-1.1-0.9-2.4-0.9-4.1c0-1.2,0.2-2.3,0.7-3.4s1.2-2.1,2.2-2.9c1-0.8,2.1-1.5,3.6-2c1.4-0.5,3.1-0.7,5-0.7c1.9,0,3.6,0.3,5,0.8
		c1.4,0.5,2.6,1.3,3.5,2.2c0.9,0.9,1.6,2,2.1,3.2c0.5,1.2,0.7,2.5,0.7,3.9h-3c0-1.3-0.2-2.4-0.7-3.3c-0.5-0.9-1.1-1.7-1.8-2.3
		c-0.8-0.6-1.7-1-2.7-1.3c-1-0.3-2-0.4-3.1-0.4c-1.6,0-3,0.2-4.1,0.7c-1.1,0.5-2,1-2.6,1.8c-0.7,0.7-1.1,1.5-1.4,2.4
		c-0.2,0.9-0.3,1.7-0.1,2.6c0.2,1.1,0.6,2,1.3,2.6c0.7,0.7,1.5,1.2,2.5,1.6c1,0.4,2.1,0.8,3.3,1c1.2,0.3,2.4,0.5,3.7,0.8
		c1.2,0.3,2.5,0.6,3.6,1.1c1.2,0.4,2.2,1,3.1,1.6c0.9,0.7,1.6,1.6,2.2,2.6c0.5,1.1,0.8,2.4,0.8,4c0,3.1-1.1,5.5-3.2,7.2
		c-2.2,1.7-5.2,2.6-9.1,2.6c-1.7,0-3.4-0.2-4.9-0.7c-1.5-0.5-2.8-1.1-3.9-2.1c-1.1-0.9-1.9-2.1-2.5-3.4c-0.6-1.4-0.9-3-0.9-4.8H88.8
		z"/>
</g>
<g>
	<g>
		<path class="st1" d="M105.2,52.2H8.1c-0.5,0-0.9-0.2-1.3-0.6c-0.3-0.4-0.5-0.8-0.4-1.3C9,21.3,34.3,8.1,56.7,8.1
			s47.6,13.2,50.3,42.2c0,0.5-0.1,1-0.4,1.3C106.2,52,105.7,52.2,105.2,52.2L105.2,52.2z M10,48.7L10,48.7h93.3
			C100,23,77.7,11.5,56.7,11.5C35.6,11.5,13.3,23,10,48.7z"/>
	</g>
	<g>
		<path class="st1" d="M94.4,43.4c-0.7,0-1.3-0.4-1.6-1.1c-3.3-8.7-10.4-15.5-19.9-19.2c-0.9-0.3-1.3-1.3-1-2.2s1.3-1.3,2.2-1
			c10.5,4,18.3,11.5,21.9,21.2c0.3,0.9-0.1,1.9-1,2.2C94.8,43.4,94.6,43.4,94.4,43.4L94.4,43.4z M66.6,21.2L66.6,21.2
			c-0.1,0-0.2,0-0.4,0c-1.4-0.3-2.9-0.5-4.3-0.7c-0.9-0.1-1.6-1-1.5-1.9s1-1.6,1.9-1.5c1.5,0.2,3.1,0.4,4.7,0.7
			c0.9,0.2,1.5,1.1,1.3,2C68.1,20.7,67.4,21.2,66.6,21.2z"/>
	</g>
	<g>
		<path class="st1" d="M110.6,61.1H2.7c-1,0-1.7-0.8-1.7-1.7s0.8-1.7,1.7-1.7h107.9c0.9,0,1.7,0.8,1.7,1.7
			C112.3,60.3,111.6,61.1,110.6,61.1z"/>
	</g>
	<g>
		<path class="st1" d="M56.7,11.5c-3.2,0-5.8-2.6-5.8-5.8s2.6-5.8,5.8-5.8s5.8,2.6,5.8,5.8C62.4,8.9,59.8,11.5,56.7,11.5L56.7,11.5z
			 M56.7,3.4L56.7,3.4c-1.3,0-2.3,1-2.3,2.3s1,2.3,2.3,2.3S59,7,59,5.7C59,4.5,57.9,3.4,56.7,3.4z"/>
	</g>
</g>
</svg>
